<svg xmlns="http://www.w3.org/2000/svg" viewBox="0 0 180 252" width="180" height="252"><rect width="180" height="252" rx="14" fill="#F5E9D0"/><rect x="4" y="4" width="172" height="244" rx="11" fill="none" stroke="#E7D6B4" stroke-width="2"/><path d="M4 4 H176 a10 10 0 0 1 10 10 V50 H4 V14 a10 10 0 0 1 10-10 Z" fill="#7CB342" transform="translate(0,0)"/><path d="M0 58 a10.0 8 0 0 0 20.0 0 a10.0 8 0 0 0 20.0 0 a10.0 8 0 0 0 20.0 0 a10.0 8 0 0 0 20.0 0 a10.0 8 0 0 0 20.0 0 a10.0 8 0 0 0 20.0 0 a10.0 8 0 0 0 20.0 0 a10.0 8 0 0 0 20.0 0 a10.0 8 0 0 0 20.0 0 L180 28 L0 28 Z" fill="#7CB342"/><text x="14" y="38" font-family="Fraunces, Georgia, serif" font-size="30" font-weight="700" fill="#FFF6E3">10</text><text x="166" y="36" text-anchor="end" font-family="Inter, sans-serif" font-size="11" letter-spacing="2" font-weight="700" fill="#FFF6E3" opacity=".9">SOUR</text><g transform="translate(40,74) scale(1.0)"><path d="M72.0 52.0 L100.0 52.0 L98.3 64.9 L71.3 57.7 Z" fill="#7CB342" opacity="0.16"/><path d="M69.1 63.0 L93.3 77.0 L85.4 87.4 L65.6 67.6 Z" fill="#7CB342" opacity="0.16"/><path d="M61.0 71.1 L75.0 95.3 L62.9 100.3 L55.7 73.3 Z" fill="#7CB342" opacity="0.16"/><path d="M50.0 74.0 L50.0 102.0 L37.1 100.3 L44.3 73.3 Z" fill="#7CB342" opacity="0.16"/><path d="M39.0 71.1 L25.0 95.3 L14.6 87.4 L34.4 67.6 Z" fill="#7CB342" opacity="0.16"/><path d="M30.9 63.0 L6.7 77.0 L1.7 64.9 L28.7 57.7 Z" fill="#7CB342" opacity="0.16"/><path d="M28.0 52.0 L0.0 52.0 L1.7 39.1 L28.7 46.3 Z" fill="#7CB342" opacity="0.16"/><path d="M30.9 41.0 L6.7 27.0 L14.6 16.6 L34.4 36.4 Z" fill="#7CB342" opacity="0.16"/><path d="M39.0 32.9 L25.0 8.7 L37.1 3.7 L44.3 30.7 Z" fill="#7CB342" opacity="0.16"/><path d="M50.0 30.0 L50.0 2.0 L62.9 3.7 L55.7 30.7 Z" fill="#7CB342" opacity="0.16"/><path d="M61.0 32.9 L75.0 8.7 L85.4 16.6 L65.6 36.4 Z" fill="#7CB342" opacity="0.16"/><path d="M69.1 41.0 L93.3 27.0 L98.3 39.1 L71.3 46.3 Z" fill="#7CB342" opacity="0.16"/>
      <circle cx="50" cy="54" r="24" fill="#7CB342"/>
      <circle cx="50" cy="54" r="15" fill="#557F2B"/>
      <g stroke="#7CB342" stroke-width="3"><line x1="50" y1="54" x2="63" y2="54"/><line x1="50" y1="54" x2="59" y2="63"/><line x1="50" y1="54" x2="50" y2="67"/><line x1="50" y1="54" x2="41" y2="63"/><line x1="50" y1="54" x2="37" y2="54"/><line x1="50" y1="54" x2="41" y2="45"/><line x1="50" y1="54" x2="50" y2="41"/><line x1="50" y1="54" x2="59" y2="45"/></g>
      <circle cx="32" cy="34" r="4" fill="#7CB342" opacity=".7"/><circle cx="70" cy="30" r="3" fill="#7CB342" opacity=".7"/>
      <circle cx="62" cy="40" r="2.5" fill="#FFF6E3" opacity=".8"/>
      <path d="M54 30 C58 22 68 20 74 24 C70 32 60 34 54 30 Z" fill="#557F2B"/></g><rect x="14" y="206" width="152" height="1.5" fill="#557F2B" opacity=".35"/><text x="90.0" y="228" text-anchor="middle" font-family="Fraunces, Georgia, serif" font-size="15" font-weight="600" fill="#2B2438">Fermented Lime</text></svg>