<svg xmlns="http://www.w3.org/2000/svg" viewBox="0 0 180 252" width="180" height="252"><rect width="180" height="252" rx="14" fill="#F5E9D0"/><rect x="4" y="4" width="172" height="244" rx="11" fill="none" stroke="#E7D6B4" stroke-width="2"/><path d="M4 4 H176 a10 10 0 0 1 10 10 V50 H4 V14 a10 10 0 0 1 10-10 Z" fill="#8E5AA8" transform="translate(0,0)"/><path d="M0 58 a10.0 8 0 0 0 20.0 0 a10.0 8 0 0 0 20.0 0 a10.0 8 0 0 0 20.0 0 a10.0 8 0 0 0 20.0 0 a10.0 8 0 0 0 20.0 0 a10.0 8 0 0 0 20.0 0 a10.0 8 0 0 0 20.0 0 a10.0 8 0 0 0 20.0 0 a10.0 8 0 0 0 20.0 0 L180 28 L0 28 Z" fill="#8E5AA8"/><text x="14" y="38" font-family="Fraunces, Georgia, serif" font-size="30" font-weight="700" fill="#FFF6E3">5</text><text x="166" y="36" text-anchor="end" font-family="Inter, sans-serif" font-size="11" letter-spacing="2" font-weight="700" fill="#FFF6E3" opacity=".9">UMAMI</text><g transform="translate(40,74) scale(1.0)"><path d="M72.0 52.0 L100.0 52.0 L98.3 64.9 L71.3 57.7 Z" fill="#8E5AA8" opacity="0.16"/><path d="M69.1 63.0 L93.3 77.0 L85.4 87.4 L65.6 67.6 Z" fill="#8E5AA8" opacity="0.16"/><path d="M61.0 71.1 L75.0 95.3 L62.9 100.3 L55.7 73.3 Z" fill="#8E5AA8" opacity="0.16"/><path d="M50.0 74.0 L50.0 102.0 L37.1 100.3 L44.3 73.3 Z" fill="#8E5AA8" opacity="0.16"/><path d="M39.0 71.1 L25.0 95.3 L14.6 87.4 L34.4 67.6 Z" fill="#8E5AA8" opacity="0.16"/><path d="M30.9 63.0 L6.7 77.0 L1.7 64.9 L28.7 57.7 Z" fill="#8E5AA8" opacity="0.16"/><path d="M28.0 52.0 L0.0 52.0 L1.7 39.1 L28.7 46.3 Z" fill="#8E5AA8" opacity="0.16"/><path d="M30.9 41.0 L6.7 27.0 L14.6 16.6 L34.4 36.4 Z" fill="#8E5AA8" opacity="0.16"/><path d="M39.0 32.9 L25.0 8.7 L37.1 3.7 L44.3 30.7 Z" fill="#8E5AA8" opacity="0.16"/><path d="M50.0 30.0 L50.0 2.0 L62.9 3.7 L55.7 30.7 Z" fill="#8E5AA8" opacity="0.16"/><path d="M61.0 32.9 L75.0 8.7 L85.4 16.6 L65.6 36.4 Z" fill="#8E5AA8" opacity="0.16"/><path d="M69.1 41.0 L93.3 27.0 L98.3 39.1 L71.3 46.3 Z" fill="#8E5AA8" opacity="0.16"/>
      <path d="M24 52 L76 52 C76 66 66 76 50 76 C34 76 24 66 24 52 Z" fill="#8E5AA8"/>
      <path d="M24 52 L76 52 C76 56 66 58 50 58 C34 58 24 56 24 52 Z" fill="#623A78"/>
      <path d="M40 44 C36 38 40 34 38 28" stroke="#623A78" stroke-width="4.5" fill="none" stroke-linecap="round" opacity=".9"/>
      <path d="M58 44 C54 38 58 34 56 28" stroke="#623A78" stroke-width="4.5" fill="none" stroke-linecap="round" opacity=".9"/>
      <circle cx="34" cy="68" r="3" fill="#FFF6E3" opacity=".6"/></g><rect x="14" y="206" width="152" height="1.5" fill="#623A78" opacity=".35"/><text x="90.0" y="228" text-anchor="middle" font-family="Fraunces, Georgia, serif" font-size="15" font-weight="600" fill="#2B2438">Dashi</text></svg>