<svg xmlns="http://www.w3.org/2000/svg" viewBox="0 0 240 240" width="240" height="240"><rect width="240" height="240" rx="54" fill="#171426"/><path d="M172.0 120.0 L236.0 120.0 L233.8 142.6 L171.0 130.1 Z" fill="#D9A441" opacity="0.22"/><path d="M168.0 139.9 L227.2 164.4 L216.5 184.4 L163.2 148.9 Z" fill="#D9A441" opacity="0.22"/><path d="M156.8 156.8 L202.0 202.0 L184.4 216.5 L148.9 163.2 Z" fill="#D9A441" opacity="0.22"/><path d="M139.9 168.0 L164.4 227.2 L142.6 233.8 L130.1 171.0 Z" fill="#D9A441" opacity="0.22"/><path d="M120.0 172.0 L120.0 236.0 L97.4 233.8 L109.9 171.0 Z" fill="#D9A441" opacity="0.22"/><path d="M100.1 168.0 L75.6 227.2 L55.6 216.5 L91.1 163.2 Z" fill="#D9A441" opacity="0.22"/><path d="M83.2 156.8 L38.0 202.0 L23.5 184.4 L76.8 148.9 Z" fill="#D9A441" opacity="0.22"/><path d="M72.0 139.9 L12.8 164.4 L6.2 142.6 L69.0 130.1 Z" fill="#D9A441" opacity="0.22"/><path d="M68.0 120.0 L4.0 120.0 L6.2 97.4 L69.0 109.9 Z" fill="#D9A441" opacity="0.22"/><path d="M72.0 100.1 L12.8 75.6 L23.5 55.6 L76.8 91.1 Z" fill="#D9A441" opacity="0.22"/><path d="M83.2 83.2 L38.0 38.0 L55.6 23.5 L91.1 76.8 Z" fill="#D9A441" opacity="0.22"/><path d="M100.1 72.0 L75.6 12.8 L97.4 6.2 L109.9 69.0 Z" fill="#D9A441" opacity="0.22"/><path d="M120.0 68.0 L120.0 4.0 L142.6 6.2 L130.1 69.0 Z" fill="#D9A441" opacity="0.22"/><path d="M139.9 72.0 L164.4 12.8 L184.4 23.5 L148.9 76.8 Z" fill="#D9A441" opacity="0.22"/><path d="M156.8 83.2 L202.0 38.0 L216.5 55.6 L163.2 91.1 Z" fill="#D9A441" opacity="0.22"/><path d="M168.0 100.1 L227.2 75.6 L233.8 97.4 L171.0 109.9 Z" fill="#D9A441" opacity="0.22"/><circle cx="120" cy="120" r="78" fill="#F5E9D0"/><circle cx="120" cy="120" r="78" fill="none" stroke="#D9A441" stroke-width="7"/><g transform="translate(54,52) scale(1.28)">
      <path d="M28 72 C20 66 18 52 30 40 C42 28 62 22 74 26 C70 40 62 58 48 68 C40 74 33 75 28 72 Z" fill="#E23B22"/>
      <path d="M32 66 C40 62 54 52 62 38" stroke="#A32612" stroke-width="5" fill="none" stroke-linecap="round"/>
      <path d="M72 26 C74 18 82 16 86 18 C84 26 78 30 72 30 Z" fill="#557F2B"/>
      <circle cx="34" cy="58" r="3.5" fill="#FFF6E3" opacity=".8"/></g></svg>