<svg xmlns="http://www.w3.org/2000/svg" viewBox="0 0 420 120" width="420" height="120"><path d="M82.0 60.0 L112.0 60.0 L110.2 73.5 L81.3 65.7 Z" fill="#D9A441" opacity="0.3"/><path d="M79.1 71.0 L105.0 86.0 L96.8 96.8 L75.6 75.6 Z" fill="#D9A441" opacity="0.3"/><path d="M71.0 79.1 L86.0 105.0 L73.5 110.2 L65.7 81.3 Z" fill="#D9A441" opacity="0.3"/><path d="M60.0 82.0 L60.0 112.0 L46.5 110.2 L54.3 81.3 Z" fill="#D9A441" opacity="0.3"/><path d="M49.0 79.1 L34.0 105.0 L23.2 96.8 L44.4 75.6 Z" fill="#D9A441" opacity="0.3"/><path d="M40.9 71.0 L15.0 86.0 L9.8 73.5 L38.7 65.7 Z" fill="#D9A441" opacity="0.3"/><path d="M38.0 60.0 L8.0 60.0 L9.8 46.5 L38.7 54.3 Z" fill="#D9A441" opacity="0.3"/><path d="M40.9 49.0 L15.0 34.0 L23.2 23.2 L44.4 44.4 Z" fill="#D9A441" opacity="0.3"/><path d="M49.0 40.9 L34.0 15.0 L46.5 9.8 L54.3 38.7 Z" fill="#D9A441" opacity="0.3"/><path d="M60.0 38.0 L60.0 8.0 L73.5 9.8 L65.7 38.7 Z" fill="#D9A441" opacity="0.3"/><path d="M71.0 40.9 L86.0 15.0 L96.8 23.2 L75.6 44.4 Z" fill="#D9A441" opacity="0.3"/><path d="M79.1 49.0 L105.0 34.0 L110.2 46.5 L81.3 54.3 Z" fill="#D9A441" opacity="0.3"/><circle cx="60" cy="60" r="20" fill="#D9A441"/><g fill="#171426"><ellipse cx="60" cy="46" rx="5" ry="12" transform="rotate(0 60 60)"/><ellipse cx="60" cy="46" rx="5" ry="12" transform="rotate(60 60 60)"/><ellipse cx="60" cy="46" rx="5" ry="12" transform="rotate(120 60 60)"/><ellipse cx="60" cy="46" rx="5" ry="12" transform="rotate(180 60 60)"/><ellipse cx="60" cy="46" rx="5" ry="12" transform="rotate(240 60 60)"/><ellipse cx="60" cy="46" rx="5" ry="12" transform="rotate(300 60 60)"/></g><circle cx="60" cy="60" r="4.5" fill="#171426"/><path d="M108 60 C150 30 200 92 250 60 C300 30 350 80 396 56" stroke="#D9A441" stroke-width="3" stroke-dasharray="1 9" fill="none" stroke-linecap="round"/><text x="108" y="52" font-family="Fraunces, Georgia, serif" font-size="42" font-weight="700" fill="#F2E8D5" letter-spacing="2">SPICE ROUTE</text><text x="110" y="96" font-family="Inter, sans-serif" font-size="13" letter-spacing="6" fill="#9A92B0">A  DELICIOUS  ROGUELIKE</text></svg>