<svg xmlns="http://www.w3.org/2000/svg" viewBox="0 0 100 100" width="100" height="100"><path d="M70.0 50.0 L96.0 50.0 L94.4 61.9 L69.3 55.2 Z" fill="#7CB342" opacity="0.18"/><path d="M67.3 60.0 L89.8 73.0 L82.5 82.5 L64.1 64.1 Z" fill="#7CB342" opacity="0.18"/><path d="M60.0 67.3 L73.0 89.8 L61.9 94.4 L55.2 69.3 Z" fill="#7CB342" opacity="0.18"/><path d="M50.0 70.0 L50.0 96.0 L38.1 94.4 L44.8 69.3 Z" fill="#7CB342" opacity="0.18"/><path d="M40.0 67.3 L27.0 89.8 L17.5 82.5 L35.9 64.1 Z" fill="#7CB342" opacity="0.18"/><path d="M32.7 60.0 L10.2 73.0 L5.6 61.9 L30.7 55.2 Z" fill="#7CB342" opacity="0.18"/><path d="M30.0 50.0 L4.0 50.0 L5.6 38.1 L30.7 44.8 Z" fill="#7CB342" opacity="0.18"/><path d="M32.7 40.0 L10.2 27.0 L17.5 17.5 L35.9 35.9 Z" fill="#7CB342" opacity="0.18"/><path d="M40.0 32.7 L27.0 10.2 L38.1 5.6 L44.8 30.7 Z" fill="#7CB342" opacity="0.18"/><path d="M50.0 30.0 L50.0 4.0 L61.9 5.6 L55.2 30.7 Z" fill="#7CB342" opacity="0.18"/><path d="M60.0 32.7 L73.0 10.2 L82.5 17.5 L64.1 35.9 Z" fill="#7CB342" opacity="0.18"/><path d="M67.3 40.0 L89.8 27.0 L94.4 38.1 L69.3 44.8 Z" fill="#7CB342" opacity="0.18"/>
      <circle cx="50" cy="54" r="24" fill="#7CB342"/>
      <circle cx="50" cy="54" r="15" fill="#557F2B"/>
      <g stroke="#7CB342" stroke-width="3"><line x1="50" y1="54" x2="63" y2="54"/><line x1="50" y1="54" x2="59" y2="63"/><line x1="50" y1="54" x2="50" y2="67"/><line x1="50" y1="54" x2="41" y2="63"/><line x1="50" y1="54" x2="37" y2="54"/><line x1="50" y1="54" x2="41" y2="45"/><line x1="50" y1="54" x2="50" y2="41"/><line x1="50" y1="54" x2="59" y2="45"/></g>
      <circle cx="32" cy="34" r="4" fill="#7CB342" opacity=".7"/><circle cx="70" cy="30" r="3" fill="#7CB342" opacity=".7"/>
      <circle cx="62" cy="40" r="2.5" fill="#FFF6E3" opacity=".8"/>
      <path d="M54 30 C58 22 68 20 74 24 C70 32 60 34 54 30 Z" fill="#557F2B"/></svg>