<svg xmlns="http://www.w3.org/2000/svg" viewBox="0 0 100 100" width="100" height="100">
      <circle cx="50" cy="54" r="24" fill="#7CB342"/>
      <circle cx="50" cy="54" r="15" fill="#557F2B"/>
      <g stroke="#7CB342" stroke-width="3"><line x1="50" y1="54" x2="63" y2="54"/><line x1="50" y1="54" x2="59" y2="63"/><line x1="50" y1="54" x2="50" y2="67"/><line x1="50" y1="54" x2="41" y2="63"/><line x1="50" y1="54" x2="37" y2="54"/><line x1="50" y1="54" x2="41" y2="45"/><line x1="50" y1="54" x2="50" y2="41"/><line x1="50" y1="54" x2="59" y2="45"/></g>
      <circle cx="32" cy="34" r="4" fill="#7CB342" opacity=".7"/><circle cx="70" cy="30" r="3" fill="#7CB342" opacity=".7"/>
      <circle cx="62" cy="40" r="2.5" fill="#FFF6E3" opacity=".8"/>
      <path d="M54 30 C58 22 68 20 74 24 C70 32 60 34 54 30 Z" fill="#557F2B"/></svg>