<svg xmlns="http://www.w3.org/2000/svg" viewBox="0 0 100 100" width="100" height="100"><path d="M70.0 50.0 L96.0 50.0 L94.4 61.9 L69.3 55.2 Z" fill="#7CB342" opacity="0.18"/><path d="M67.3 60.0 L89.8 73.0 L82.5 82.5 L64.1 64.1 Z" fill="#7CB342" opacity="0.18"/><path d="M60.0 67.3 L73.0 89.8 L61.9 94.4 L55.2 69.3 Z" fill="#7CB342" opacity="0.18"/><path d="M50.0 70.0 L50.0 96.0 L38.1 94.4 L44.8 69.3 Z" fill="#7CB342" opacity="0.18"/><path d="M40.0 67.3 L27.0 89.8 L17.5 82.5 L35.9 64.1 Z" fill="#7CB342" opacity="0.18"/><path d="M32.7 60.0 L10.2 73.0 L5.6 61.9 L30.7 55.2 Z" fill="#7CB342" opacity="0.18"/><path d="M30.0 50.0 L4.0 50.0 L5.6 38.1 L30.7 44.8 Z" fill="#7CB342" opacity="0.18"/><path d="M32.7 40.0 L10.2 27.0 L17.5 17.5 L35.9 35.9 Z" fill="#7CB342" opacity="0.18"/><path d="M40.0 32.7 L27.0 10.2 L38.1 5.6 L44.8 30.7 Z" fill="#7CB342" opacity="0.18"/><path d="M50.0 30.0 L50.0 4.0 L61.9 5.6 L55.2 30.7 Z" fill="#7CB342" opacity="0.18"/><path d="M60.0 32.7 L73.0 10.2 L82.5 17.5 L64.1 35.9 Z" fill="#7CB342" opacity="0.18"/><path d="M67.3 40.0 L89.8 27.0 L94.4 38.1 L69.3 44.8 Z" fill="#7CB342" opacity="0.18"/>
      <path d="M22 50 C22 38 34 30 50 30 C66 30 78 38 78 50 C78 62 66 70 50 70 C34 70 22 62 22 50 Z" fill="#7CB342"/>
      <path d="M18 50 C20 48 22 48 24 50 C22 52 20 52 18 50 Z" fill="#7CB342"/>
      <path d="M76 50 C78 48 80 48 82 50 C80 52 78 52 76 50 Z" fill="#7CB342"/>
      <path d="M30 44 C36 38 46 36 54 38" stroke="#FFF6E3" stroke-width="4" fill="none" opacity=".6" stroke-linecap="round"/>
      <path d="M60 28 C64 18 76 16 84 20 C78 30 68 32 60 28 Z" fill="#557F2B"/></svg>