<svg xmlns="http://www.w3.org/2000/svg" viewBox="0 0 100 100" width="100" height="100">
      <path d="M22 50 C22 38 34 30 50 30 C66 30 78 38 78 50 C78 62 66 70 50 70 C34 70 22 62 22 50 Z" fill="#7CB342"/>
      <path d="M18 50 C20 48 22 48 24 50 C22 52 20 52 18 50 Z" fill="#7CB342"/>
      <path d="M76 50 C78 48 80 48 82 50 C80 52 78 52 76 50 Z" fill="#7CB342"/>
      <path d="M30 44 C36 38 46 36 54 38" stroke="#FFF6E3" stroke-width="4" fill="none" opacity=".6" stroke-linecap="round"/>
      <path d="M60 28 C64 18 76 16 84 20 C78 30 68 32 60 28 Z" fill="#557F2B"/></svg>