<svg xmlns="http://www.w3.org/2000/svg" viewBox="0 0 100 100" width="100" height="100"><path d="M70.0 50.0 L96.0 50.0 L94.4 61.9 L69.3 55.2 Z" fill="#E8A020" opacity="0.18"/><path d="M67.3 60.0 L89.8 73.0 L82.5 82.5 L64.1 64.1 Z" fill="#E8A020" opacity="0.18"/><path d="M60.0 67.3 L73.0 89.8 L61.9 94.4 L55.2 69.3 Z" fill="#E8A020" opacity="0.18"/><path d="M50.0 70.0 L50.0 96.0 L38.1 94.4 L44.8 69.3 Z" fill="#E8A020" opacity="0.18"/><path d="M40.0 67.3 L27.0 89.8 L17.5 82.5 L35.9 64.1 Z" fill="#E8A020" opacity="0.18"/><path d="M32.7 60.0 L10.2 73.0 L5.6 61.9 L30.7 55.2 Z" fill="#E8A020" opacity="0.18"/><path d="M30.0 50.0 L4.0 50.0 L5.6 38.1 L30.7 44.8 Z" fill="#E8A020" opacity="0.18"/><path d="M32.7 40.0 L10.2 27.0 L17.5 17.5 L35.9 35.9 Z" fill="#E8A020" opacity="0.18"/><path d="M40.0 32.7 L27.0 10.2 L38.1 5.6 L44.8 30.7 Z" fill="#E8A020" opacity="0.18"/><path d="M50.0 30.0 L50.0 4.0 L61.9 5.6 L55.2 30.7 Z" fill="#E8A020" opacity="0.18"/><path d="M60.0 32.7 L73.0 10.2 L82.5 17.5 L64.1 35.9 Z" fill="#E8A020" opacity="0.18"/><path d="M67.3 40.0 L89.8 27.0 L94.4 38.1 L69.3 44.8 Z" fill="#E8A020" opacity="0.18"/>
      <path d="M50 20 L57 34 L72 30 L64 44 L78 52 L62 56 L64 72 L50 62 L36 72 L38 56 L22 52 L36 44 L28 30 L43 34 Z" fill="#E8A020"/>
      <path d="M50 30 L50 60" stroke="#B0740E" stroke-width="4" stroke-linecap="round"/>
      <path d="M50 62 L50 80" stroke="#B0740E" stroke-width="5" stroke-linecap="round"/>
      <path d="M40 46 L60 46" stroke="#B0740E" stroke-width="3.5" stroke-linecap="round"/></svg>