<svg xmlns="http://www.w3.org/2000/svg" viewBox="0 0 100 100" width="100" height="100">
      <path d="M25 58 C25 44 36 36 50 36 C64 36 75 44 75 58 C75 64 71 70 64 72 C60 76 54 77 50 74 C46 77 40 76 36 72 C29 70 25 64 25 58 Z" fill="#E23B22"/>
      <path d="M36 70 C33 64 33 54 38 46" stroke="#A32612" stroke-width="5" fill="none" stroke-linecap="round"/>
      <path d="M62 70 C66 64 66 54 61 46" stroke="#A32612" stroke-width="5" fill="none" stroke-linecap="round"/>
      <path d="M46 36 C46 28 50 22 58 20 C60 26 56 33 52 36 Z" fill="#557F2B"/>
      <circle cx="42" cy="52" r="3.5" fill="#FFF6E3" opacity=".8"/></svg>