<svg xmlns="http://www.w3.org/2000/svg" viewBox="0 0 100 100" width="100" height="100">
      <path d="M22 50 C22 36 34 28 50 28 C66 28 78 36 78 50 C78 54 74 56 70 56 L30 56 C26 56 22 54 22 50 Z" fill="#8E5AA8"/>
      <path d="M30 52 C30 44 38 38 50 38" stroke="#FFF6E3" stroke-width="4" fill="none" opacity=".5" stroke-linecap="round"/>
      <path d="M42 56 L40 74 C40 78 44 80 50 80 C56 80 60 78 60 74 L58 56 Z" fill="#623A78"/>
      <g stroke="#623A78" stroke-width="2.5" opacity=".8"><line x1="34" y1="56" x2="34" y2="60"/><line x1="50" y1="56" x2="50" y2="61"/><line x1="66" y1="56" x2="66" y2="60"/></g></svg>