<svg xmlns="http://www.w3.org/2000/svg" viewBox="0 0 100 100" width="100" height="100">
      <g fill="#E23B22"><ellipse cx="50" cy="30" rx="9" ry="20" transform="rotate(0 50 50)"/><ellipse cx="50" cy="30" rx="9" ry="20" transform="rotate(45 50 50)"/><ellipse cx="50" cy="30" rx="9" ry="20" transform="rotate(90 50 50)"/><ellipse cx="50" cy="30" rx="9" ry="20" transform="rotate(135 50 50)"/><ellipse cx="50" cy="30" rx="9" ry="20" transform="rotate(180 50 50)"/><ellipse cx="50" cy="30" rx="9" ry="20" transform="rotate(225 50 50)"/><ellipse cx="50" cy="30" rx="9" ry="20" transform="rotate(270 50 50)"/><ellipse cx="50" cy="30" rx="9" ry="20" transform="rotate(315 50 50)"/></g>
      <g fill="#A32612"><ellipse cx="50" cy="33" rx="4" ry="12" transform="rotate(0 50 50)"/><ellipse cx="50" cy="33" rx="4" ry="12" transform="rotate(45 50 50)"/><ellipse cx="50" cy="33" rx="4" ry="12" transform="rotate(90 50 50)"/><ellipse cx="50" cy="33" rx="4" ry="12" transform="rotate(135 50 50)"/><ellipse cx="50" cy="33" rx="4" ry="12" transform="rotate(180 50 50)"/><ellipse cx="50" cy="33" rx="4" ry="12" transform="rotate(225 50 50)"/><ellipse cx="50" cy="33" rx="4" ry="12" transform="rotate(270 50 50)"/><ellipse cx="50" cy="33" rx="4" ry="12" transform="rotate(315 50 50)"/></g>
      <circle cx="50" cy="50" r="7" fill="#A32612"/><circle cx="48" cy="48" r="2.5" fill="#FFF6E3" opacity=".9"/></svg>