<svg xmlns="http://www.w3.org/2000/svg" viewBox="0 0 120 120" width="120" height="120"><circle cx="60" cy="60" r="56" fill="#F5E9D0"/><circle cx="60" cy="60" r="56" fill="none" stroke="#D9A441" stroke-width="4"/><path d="M94.0 60.0 L114.0 60.0 L112.6 72.0 L93.1 67.6 Z" fill="#D9A441" opacity="0.15"/><path d="M90.6 74.8 L108.7 83.4 L102.2 93.7 L86.6 81.2 Z" fill="#D9A441" opacity="0.15"/><path d="M81.2 86.6 L93.7 102.2 L83.4 108.7 L74.8 90.6 Z" fill="#D9A441" opacity="0.15"/><path d="M67.6 93.1 L72.0 112.6 L60.0 114.0 L60.0 94.0 Z" fill="#D9A441" opacity="0.15"/><path d="M52.4 93.1 L48.0 112.6 L36.6 108.7 L45.2 90.6 Z" fill="#D9A441" opacity="0.15"/><path d="M38.8 86.6 L26.3 102.2 L17.8 93.7 L33.4 81.2 Z" fill="#D9A441" opacity="0.15"/><path d="M29.4 74.8 L11.3 83.4 L7.4 72.0 L26.9 67.6 Z" fill="#D9A441" opacity="0.15"/><path d="M26.0 60.0 L6.0 60.0 L7.4 48.0 L26.9 52.4 Z" fill="#D9A441" opacity="0.15"/><path d="M29.4 45.2 L11.3 36.6 L17.8 26.3 L33.4 38.8 Z" fill="#D9A441" opacity="0.15"/><path d="M38.8 33.4 L26.3 17.8 L36.6 11.3 L45.2 29.4 Z" fill="#D9A441" opacity="0.15"/><path d="M52.4 26.9 L48.0 7.4 L60.0 6.0 L60.0 26.0 Z" fill="#D9A441" opacity="0.15"/><path d="M67.6 26.9 L72.0 7.4 L83.4 11.3 L74.8 29.4 Z" fill="#D9A441" opacity="0.15"/><path d="M81.2 33.4 L93.7 17.8 L102.2 26.3 L86.6 38.8 Z" fill="#D9A441" opacity="0.15"/><path d="M90.6 45.2 L108.7 36.6 L112.6 48.0 L93.1 52.4 Z" fill="#D9A441" opacity="0.15"/><path d="M28 96 C30 76 44 68 60 68 C76 68 90 76 92 96 Z" fill="#2B2438"/><circle cx="60" cy="46" r="20" fill="#2B2438"/><path d="M40 34 C40 24 80 24 80 34 L78 40 L42 40 Z" fill="#A32612"/><path d="M44 56 C50 64 70 64 76 56 C72 68 48 68 44 56 Z" fill="#C8CAD4"/></svg>