<svg xmlns="http://www.w3.org/2000/svg" viewBox="0 0 100 104" width="104" height="104"><circle cx="50" cy="52" r="44" fill="#2E2846"/><path d="M76.0 52.0 L94.0 52.0 L91.8 65.6 L74.7 60.0 Z" fill="#D9A441" opacity="0.12"/><path d="M71.0 67.3 L85.6 77.9 L75.9 87.6 L65.3 73.0 Z" fill="#D9A441" opacity="0.12"/><path d="M58.0 76.7 L63.6 93.8 L50.0 96.0 L50.0 78.0 Z" fill="#D9A441" opacity="0.12"/><path d="M42.0 76.7 L36.4 93.8 L24.1 87.6 L34.7 73.0 Z" fill="#D9A441" opacity="0.12"/><path d="M29.0 67.3 L14.4 77.9 L8.2 65.6 L25.3 60.0 Z" fill="#D9A441" opacity="0.12"/><path d="M24.0 52.0 L6.0 52.0 L8.2 38.4 L25.3 44.0 Z" fill="#D9A441" opacity="0.12"/><path d="M29.0 36.7 L14.4 26.1 L24.1 16.4 L34.7 31.0 Z" fill="#D9A441" opacity="0.12"/><path d="M42.0 27.3 L36.4 10.2 L50.0 8.0 L50.0 26.0 Z" fill="#D9A441" opacity="0.12"/><path d="M58.0 27.3 L63.6 10.2 L75.9 16.4 L65.3 31.0 Z" fill="#D9A441" opacity="0.12"/><path d="M71.0 36.7 L85.6 26.1 L91.8 38.4 L74.7 44.0 Z" fill="#D9A441" opacity="0.12"/><circle cx="50" cy="52" r="22" fill="none" stroke="#D9A441" stroke-width="5"/><g stroke="#D9A441" stroke-width="2" opacity=".8"><line x1="34" y1="44" x2="66" y2="44"/><line x1="30" y1="52" x2="70" y2="52"/><line x1="34" y1="60" x2="66" y2="60"/><line x1="42" y1="32" x2="42" y2="72"/><line x1="50" y1="30" x2="50" y2="74"/><line x1="58" y1="32" x2="58" y2="72"/></g><circle cx="50" cy="52" r="44" fill="none" stroke="#D9A441" stroke-width="3.5"/></svg>