<svg xmlns="http://www.w3.org/2000/svg" viewBox="0 0 540 260" width="540" height="260"><defs><linearGradient id="g" x1="0" y1="0" x2="0" y2="1"><stop offset="0" stop-color="#2B2144"/><stop offset="1" stop-color="#7A3B52"/></linearGradient><linearGradient id="fade" x1="0" y1="0" x2="0" y2="1"><stop offset="0" stop-color="#171426" stop-opacity="0"/><stop offset="1" stop-color="#171426"/></linearGradient></defs><rect width="540" height="260" fill="url(#g)"/><circle cx="150" cy="150" r="62" fill="#E8A020"/><g stroke="#171426" stroke-width="6" stroke-linecap="round"><line x1="330" y1="210" x2="410" y2="90"/><line x1="410" y1="90" x2="470" y2="140"/></g><path d="M74 210 C70 186 72 166 80 148 L90 150 C84 168 82 188 84 210 Z" fill="#171426"/><g fill="#171426"><ellipse cx="66" cy="138" rx="26" ry="8" transform="rotate(-32 66 138)"/><ellipse cx="104" cy="136" rx="26" ry="8" transform="rotate(26 104 136)"/><ellipse cx="62" cy="150" rx="22" ry="7" transform="rotate(-64 62 150)"/><ellipse cx="110" cy="148" rx="22" ry="7" transform="rotate(58 110 148)"/><ellipse cx="86" cy="128" rx="8" ry="22"/></g><path d="M410 90 L430 150 L466 128 Z" fill="none" stroke="#171426" stroke-width="4"/><g stroke="#171426" stroke-width="2" opacity=".85"><line x1="418" y1="112" x2="448" y2="138"/><line x1="424" y1="130" x2="452" y2="122"/></g><rect y="130" width="540" height="130" fill="url(#fade)"/></svg>