<svg xmlns="http://www.w3.org/2000/svg" viewBox="0 0 540 260" width="540" height="260"><defs><linearGradient id="g" x1="0" y1="0" x2="0" y2="1"><stop offset="0" stop-color="#241F44"/><stop offset="1" stop-color="#8A4A3A"/></linearGradient><linearGradient id="fade" x1="0" y1="0" x2="0" y2="1"><stop offset="0" stop-color="#171426" stop-opacity="0"/><stop offset="1" stop-color="#171426"/></linearGradient></defs><rect width="540" height="260" fill="url(#g)"/><circle cx="130" cy="120" r="52" fill="#D9A441"/><path d="M250 210 L330 110 L352 134 L376 104 L460 210 Z" fill="#3A3355"/><path d="M330 110 C336 100 346 100 352 108 L352 134 Z" fill="#D9A441" opacity=".55"/><g fill="#171426"><path d="M92 210 L92 176 C92 160 124 160 124 176 L124 210 Z"/><circle cx="108" cy="162" r="14"/><rect x="105" y="142" width="6" height="12" rx="3"/><path d="M170 210 C164 186 164 166 170 150 C176 166 176 186 170 210 Z"/></g><rect y="130" width="540" height="130" fill="url(#fade)"/></svg>