<svg xmlns="http://www.w3.org/2000/svg" viewBox="0 0 540 260" width="540" height="260"><defs><linearGradient id="g" x1="0" y1="0" x2="0" y2="1"><stop offset="0" stop-color="#1E1B38"/><stop offset="1" stop-color="#5A2B4E"/></linearGradient><linearGradient id="fade" x1="0" y1="0" x2="0" y2="1"><stop offset="0" stop-color="#171426" stop-opacity="0"/><stop offset="1" stop-color="#171426"/></linearGradient></defs><rect width="540" height="260" fill="url(#g)"/><circle cx="390" cy="120" r="56" fill="#E23B22"/><path d="M180 210 L260 96 L292 140 L308 128 L340 210 Z" fill="#3A3355"/><path d="M252 108 L260 96 L268 108 L262 116 L258 116 Z" fill="#FFF6E3" opacity=".9"/><g fill="#171426"><rect x="70" y="134" width="10" height="76"/><rect x="130" y="134" width="10" height="76"/><path d="M54 122 L156 122 L150 134 L60 134 Z"/><rect x="66" y="144" width="78" height="8" rx="3"/><rect x="100" y="134" width="10" height="10"/></g><rect y="130" width="540" height="130" fill="url(#fade)"/></svg>